HIERARCHY
ROOT Hips
{
 OFFSET 0.000000 0.000000 0.000000
 CHANNELS 6 Xposition Yposition Zposition Yrotation Xrotation Zrotation
 JOINT Chest
 {
  OFFSET 0.000000 12.953391 -0.028419
  CHANNELS 3 Yrotation Xrotation Zrotation
  JOINT Chest2
  {
   OFFSET 0.000000 10.280254 0.051622
   CHANNELS 3 Yrotation Xrotation Zrotation
   JOINT Chest3
   {
    OFFSET 0.000000 9.287180 0.000000
    CHANNELS 3 Yrotation Xrotation Zrotation
    JOINT Chest4
    {
     OFFSET 0.000000 9.287180 0.000000
     CHANNELS 3 Yrotation Xrotation Zrotation
     JOINT Neck
     {
      OFFSET 0.000000 13.296264 0.000000
      CHANNELS 3 Yrotation Xrotation Zrotation
      JOINT Head
      {
       OFFSET 0.000000 8.959264 0.099003
       CHANNELS 3 Yrotation Xrotation Zrotation
       End Site
       {
        OFFSET 0.000000 17.121337 0.039303
       }
      }
     }
     JOINT RightCollar
     {
      OFFSET -3.193511 7.451388 0.000000
      CHANNELS 3 Yrotation Xrotation Zrotation
      JOINT RightShoulder
      {
       OFFSET -15.792092 0.000000 0.000000
       CHANNELS 3 Yrotation Xrotation Zrotation
       JOINT RightElbow
       {
        OFFSET -31.151839 0.000000 0.000000
        CHANNELS 3 Yrotation Xrotation Zrotation
        JOINT RightWrist
        {
         OFFSET -25.536298 0.000000 0.002321
         CHANNELS 3 Yrotation Xrotation Zrotation
         End Site
         {
          OFFSET -19.133213 0.000000 0.000000
         }
        }
       }
      }
     }
     JOINT LeftCollar
     {
      OFFSET 3.193511 7.451388 0.000000
      CHANNELS 3 Yrotation Xrotation Zrotation
      JOINT LeftShoulder
      {
       OFFSET 15.792092 0.000000 0.000000
       CHANNELS 3 Yrotation Xrotation Zrotation
       JOINT LeftElbow
       {
        OFFSET 31.151839 0.000000 0.000000
        CHANNELS 3 Yrotation Xrotation Zrotation
        JOINT LeftWrist
        {
         OFFSET 25.536298 0.000000 0.002321
         CHANNELS 3 Yrotation Xrotation Zrotation
         End Site
         {
          OFFSET 19.133213 0.000000 0.000000
         }
        }
       }
      }
     }
    }
   }
  }
 }
 JOINT RightHip
 {
  OFFSET -10.745749 0.139252 0.014209
  CHANNELS 3 Yrotation Xrotation Zrotation
  JOINT RightKnee
  {
   OFFSET 0.000000 -43.743899 -0.006071
   CHANNELS 3 Yrotation Xrotation Zrotation
   JOINT RightAnkle
   {
    OFFSET 0.000000 -43.214199 0.089931
    CHANNELS 3 Yrotation Xrotation Zrotation
    JOINT RightToe
    {
     OFFSET 0.000000 -9.699830 19.151588
     CHANNELS 3 Yrotation Xrotation Zrotation
     End Site
     {
      OFFSET 0.000000 -1.292898 4.893873
     }
    }
   }
  }
 }
 JOINT LeftHip
 {
  OFFSET 10.745749 0.139252 0.014209
  CHANNELS 3 Yrotation Xrotation Zrotation
  JOINT LeftKnee
  {
   OFFSET 0.000000 -43.743899 -0.006071
   CHANNELS 3 Yrotation Xrotation Zrotation
   JOINT LeftAnkle
   {
    OFFSET 0.000000 -43.214199 0.089931
    CHANNELS 3 Yrotation Xrotation Zrotation
    JOINT LeftToe
    {
     OFFSET 0.000000 -9.699830 19.151588
     CHANNELS 3 Yrotation Xrotation Zrotation
     End Site
     {
      OFFSET 0.000000 -1.292898 4.893873
     }
    }
   }
  }
 }
}
MOTION
Frames: 18
Frame Time: 0.0333333333333333
0.06070356 95.31303 0.1062301 0.1167956 359.6391 359.9523 359.5002 0.9733721 0.1394504 359.7577 0.4490782 0.07440576 359.7592 0.440793 0.0647907 359.8095 0.3287641 0.04511258 358.7704 2.416148 1.062571 357.7566 359.0749 2.03557 1.428348 357.0219 358.8664 1.032921 355.2361 1.749638 358.3284 2.858077 358.1776 1.162649 3.149252 1.208243 356.3194 357.2573 1.518013 4.327822 357.4431 358.7466 2.290896 2.15628 1.331594 359.6093 1.752135 359.2189 359.3336 0.9769598 0.01594608 -0.003650527 0.185251 0.02807586 358.7928 359.2197 0.0703405 359.972 0.09056723 -2.208995E-05 0.6131212 0.6631167 0.4008929 0.02236434 0.6337874 359.8547 0.5839447 359.1061 359.8876 0.006606857 0.009077627 0.01855312 
0.1529155 96.16228 0.2722914 0.4027473 359.0748 359.8816 358.7329 2.513956 0.3531475 359.3832 1.158847 0.1929719 359.3869 1.138046 0.1681823 359.5143 0.8483607 0.1174674 356.9221 6.284107 2.645721 354.161 357.8003 5.330794 3.815582 352.4048 356.9274 2.411693 347.6869 4.422336 355.5129 7.2561 355.1359 3.166465 8.074376 3.281276 350.3484 353.1391 4.261365 11.28173 353.6289 356.3148 6.00407 5.451567 3.585156 358.9568 4.511422 357.9387 358.2674 2.520605 0.01424546 359.982 0.484907 0.074986 356.8649 357.9966 0.2189417 359.9687 0.06097989 0.02421168 1.608876 1.700206 1.042099 0.05771556 1.650144 359.6327 1.525028 357.7111 359.6866 0.01292673 0.02730239 0.0471791 
0.2460909 97.07735 0.4568888 0.7982832 358.4573 359.8043 357.937 4.180609 0.5637547 358.9915 1.9255 0.3167148 358.9975 1.891684 0.275748 359.2043 1.409979 0.1933002 355.043 10.51164 4.230803 350.2256 356.6817 8.970991 6.587332 347.5691 354.6377 3.559428 339.543 7.256331 352.2184 11.81952 351.6192 5.590068 13.28958 5.76294 343.6617 349.0656 7.675309 18.97976 349.8955 353.0912 10.14826 8.819821 6.230091 358.1981 7.466149 356.5077 357.1015 4.183395 359.9821 359.9586 0.8265503 0.1273396 354.7646 356.6771 0.4219421 359.9688 0.04640637 0.04638105 2.715156 2.803611 1.74525 0.09346019 2.762358 359.402 2.560149 356.2278 359.4453 0.02807151 0.09268537 0.1369848 
0.3140859 97.8217 0.6235262 1.170479 357.9278 359.7339 357.3148 5.544569 0.7121057 358.6824 2.551092 0.4106244 358.6902 2.507497 0.3569292 358.9583 1.869341 0.2512824 353.5875 13.99622 5.436863 346.9853 355.9508 11.98987 9.010327 343.7683 352.6255 4.21698 332.9081 9.626966 349.3285 15.39338 348.5607 7.802797 17.45005 8.010399 338.0134 346.0757 10.77776 25.43911 347.2148 349.9793 13.64118 11.39699 8.545726 357.537 9.845883 355.2858 356.1287 5.537746 359.9447 359.9356 1.127862 0.175872 353.0158 355.5991 0.614015 359.9658 0.0395843 0.0655988 3.649648 3.684947 2.329967 0.1201518 3.689111 359.2202 3.450357 355.0454 359.2347 0.02809842 0.09887715 0.1412985 
0.3383518 98.23414 0.7473774 1.471776 357.6081 359.6888 357.0019 6.307633 0.7760763 358.5233 2.900505 0.4557503 358.5315 2.854175 0.3962814 358.8318 2.124911 0.2792778 352.8137 15.95152 6.079853 345.1909 355.6183 13.68685 10.38195 341.7606 351.5086 4.450553 329.2246 11.04239 347.6683 17.32956 346.8185 9.143148 19.71071 9.376332 334.8642 344.5758 12.55805 29.04694 345.8712 347.9952 15.59436 12.73927 9.889678 357.1622 11.14029 354.6062 355.5735 6.293039 359.9339 359.9165 1.333668 0.2026277 352.0127 355.0002 0.7185622 359.963 0.02425427 0.08034843 4.192293 4.167023 2.664743 0.1420878 4.230651 359.1263 3.980976 354.4093 359.1031 0.02434458 0.09380579 0.141985 
0.3365948 98.32179 0.8129499 1.52132 357.4943 359.671 356.969 6.460971 0.7756346 358.5062 2.966526 0.4580593 358.5135 2.920908 0.399062 358.8154 2.176697 0.2814674 352.6814 16.32946 6.20826 344.8787 355.5465 14.01709 10.5595 341.4774 351.3738 4.451859 328.4741 11.3868 347.3934 17.7042 346.5138 9.385826 20.13919 9.688439 334.4249 344.3645 12.79961 29.63704 345.6001 347.5328 15.90855 12.95165 10.13284 357.1456 11.35254 354.5237 355.4766 6.444076 359.9537 359.9151 1.435096 0.1932843 351.8233 354.8875 0.7260247 359.9657 2.710633E-05 0.09065408 4.318886 4.253862 2.748805 0.1752742 4.385108 359.1064 4.090769 354.3061 359.0632 0.02433335 0.0873273 0.1377867 
0.3092412 98.33196 0.8534627 1.543787 357.5002 359.6738 356.9804 6.455043 0.764945 358.5099 2.962512 0.4528593 358.5172 2.917528 0.395372 358.8174 2.174063 0.2795962 352.6813 16.32381 6.222229 344.8812 355.5325 14.04182 10.56452 341.5025 351.364 4.418349 328.4195 11.35928 347.3913 17.69691 346.5127 9.364441 20.16179 9.763285 334.486 344.3596 12.77809 29.5655 345.5815 347.5513 15.90712 12.92842 10.14471 357.1701 11.34663 354.5175 355.4973 6.440139 359.9669 359.9172 1.429643 0.1840284 351.8686 354.9385 0.7260481 359.958 359.9861 0.09173208 4.322165 4.243686 2.751342 0.2036944 4.40092 359.1077 4.104239 354.3462 359.0465 0.01988655 0.08620527 0.1384914 
0.2950081 98.33838 0.8859638 1.5811 357.5044 359.6706 356.9749 6.45775 0.7555969 358.5067 2.962965 0.4485655 358.5139 2.917389 0.3914294 358.8142 2.173102 0.2772674 352.6978 16.30371 6.223445 344.9138 355.4914 14.04146 10.5544 341.5521 351.3765 4.387644 328.3768 11.29895 347.3879 17.66996 346.5208 9.33115 20.16848 9.792451 334.5585 344.3647 12.7416 29.49347 345.5413 347.5425 15.88788 12.88023 10.14268 357.1984 11.30885 354.5364 355.5198 6.433298 359.9877 359.9336 1.434731 0.1670401 351.9348 354.9554 0.7226941 359.958 359.9688 0.0917384 4.329071 4.235759 2.767872 0.2159263 4.425371 359.1072 4.077644 354.3658 359.0314 0.02433167 0.0850576 0.1391992 
0.2832775 98.33499 0.932704 1.575947 357.5585 359.6597 356.9632 6.436325 0.7494335 358.5017 2.953496 0.4455357 358.5091 2.906723 0.3882394 358.8109 2.164045 0.2746737 352.6973 16.29177 6.230904 344.9112 355.4684 14.05837 10.54185 341.5733 351.3608 4.333234 328.3167 11.26404 347.3488 17.63561 346.4898 9.317571 20.18068 9.842704 334.5779 344.3956 12.72023 29.48974 345.4901 347.5054 15.91475 12.88558 10.15954 357.2081 11.28175 354.5206 355.549 6.368028 -0.002071308 359.9514 1.466067 0.1467659 351.9939 354.958 0.7155671 359.958 359.9536 0.09591548 4.335896 4.162862 2.783795 0.2142457 4.473699 359.1038 4.051418 354.3807 359.0121 0.02432574 0.0778528 0.1433533 
0.28884 98.3268 0.9839001 1.585187 357.6002 359.6606 356.9651 6.430212 0.7532169 358.5035 2.950913 0.4468284 358.5109 2.902936 0.3883344 358.8125 2.159858 0.2734266 352.6969 16.27249 6.239286 344.9049 355.4365 14.0788 10.52338 341.5817 351.3676 4.280315 328.2787 11.27443 347.3676 17.57938 346.4816 9.343266 20.2202 9.924855 334.5934 344.3983 12.72093 29.50043 345.455 347.4502 15.9279 12.89999 10.17238 357.2064 11.28329 354.4715 355.5674 6.315469 -0.001021254 359.9598 1.499184 0.1386677 352.041 354.9366 0.721963 359.958 359.9359 0.09991945 4.344178 4.12099 2.783973 0.2149916 4.497419 359.0876 4.034031 354.3716 359.0112 0.0280601 0.06849383 0.1398991 
0.2988257 98.31519 1.041668 1.685627 357.6491 359.6601 356.9688 6.420623 0.7680205 358.5057 2.946569 0.4535526 358.5132 2.898274 0.394388 358.8148 2.156303 0.2771239 352.7052 16.26849 6.237603 344.9165 355.4275 14.0758 10.5312 341.5872 351.3427 4.285762 328.261 11.27058 347.3841 17.57614 346.4784 9.383436 20.24871 9.978975 334.5959 344.3879 12.72197 29.55237 345.4388 347.392 15.94378 12.92744 10.18394 357.2119 11.28485 354.4804 355.5824 6.273154 0.01325244 359.9554 1.50245 0.1400078 352.0697 354.9193 0.7038482 359.958 359.9247 0.1074733 4.355583 4.068003 2.77766 0.2189805 4.509013 359.0829 4.041615 354.3503 359.024 0.03135648 0.06406407 0.1391987 
0.3271548 98.30656 1.085616 1.684541 357.6404 359.6643 356.9615 6.426483 0.7716382 358.5031 2.94894 0.4558361 358.5106 2.900248 0.3972333 358.813 2.157249 0.2803325 352.7278 16.26563 6.243266 344.9544 355.4181 14.07945 10.52722 341.6074 351.3627 4.209704 328.2563 11.31047 347.3851 17.57507 346.4948 9.386864 20.25842 10.05003 334.6111 344.3978 12.70577 29.60805 345.4292 347.3395 15.95661 12.93507 10.20691 357.2032 11.2934 354.4747 355.6072 6.299167 0.03073967 359.9495 1.481141 0.1433771 352.071 354.9102 0.6708702 359.9604 359.9138 0.1119357 4.365554 4.087105 2.779479 0.2321186 4.488371 359.0796 4.045745 354.3163 359.0359 0.02805127 0.06252375 0.1370714 
0.3496698 98.29873 1.114035 1.629882 357.654 359.6625 356.9526 6.41676 0.775038 358.4992 2.944588 0.4577704 358.507 2.895486 0.3994492 358.8104 2.153736 0.2828963 352.7345 16.27103 6.244619 344.9679 355.425 14.07942 10.53295 341.5998 351.3701 4.179776 328.3031 11.29683 347.3907 17.5917 346.5035 9.437646 20.27593 10.0437 334.5854 344.3928 12.70726 29.63094 345.4485 347.3344 15.98041 12.93288 10.22034 357.1982 11.32108 354.49 355.6132 6.307977 0.04513131 359.9292 1.451204 0.147812 352.0499 354.9096 0.636419 359.9557 359.9185 0.1203629 4.375991 4.090884 2.773342 0.2419943 4.458557 359.0873 4.070356 354.287 359.0562 0.03433829 0.06557178 0.1297412 
0.3707067 98.29228 1.144956 1.77465 357.6384 359.6523 356.9387 6.416155 0.7767688 358.4931 2.944664 0.4589919 358.5013 2.896133 0.400639 358.8063 2.154845 0.2834489 352.7347 16.28422 6.242167 344.9724 355.4475 14.07012 10.56162 341.5714 351.366 4.124212 328.3571 11.28757 347.3664 17.59445 346.5214 9.483052 20.27436 10.07724 334.5216 344.4095 12.70582 29.72117 345.4785 347.3591 16.01817 12.93338 10.22803 357.1723 11.32673 354.4655 355.6059 6.337365 0.05435833 359.918 1.418144 0.1547632 352.0106 354.9314 0.6216087 359.9579 359.9149 0.1274701 4.376315 4.111706 2.786364 0.2441699 4.438007 359.0938 4.087565 354.2744 359.0598 0.03434068 0.06848966 0.1282248 
0.3788085 98.29016 1.164866 1.909072 357.6237 359.6344 356.9401 6.441796 0.7776161 358.4941 2.956866 0.4594489 358.5027 2.908505 0.4014049 358.8078 2.164558 0.2840159 352.7502 16.28323 6.230695 345.0046 355.4401 14.04292 10.56489 341.516 351.3488 4.071692 328.3976 11.25527 347.3244 17.58213 346.5221 9.522306 20.25586 10.08408 334.4877 344.3901 12.69221 29.77075 345.4867 347.3555 16.02278 12.90654 10.21966 357.147 11.28186 354.4721 355.6037 6.354468 0.07921682 359.9145 1.410881 0.1502645 351.9684 354.9367 0.595542 359.9557 359.9209 0.1356516 4.372416 4.131999 2.803386 0.24567 4.440087 359.1059 4.086052 354.2526 359.0638 0.03434684 0.07398037 0.1282264 
0.3822974 98.28485 1.197216 1.86712 357.6276 359.6186 356.9471 6.461221 0.7911556 358.4969 2.967106 0.4658318 358.5059 2.918501 0.4073333 358.8103 2.171871 0.2881101 352.7372 16.27189 6.23387 344.9783 355.4228 14.05351 10.58937 341.4645 351.3029 4.090359 328.4229 11.20413 347.265 17.56792 346.4994 9.515368 20.25294 10.14935 334.4278 344.3796 12.71154 29.84626 345.5038 347.4099 16.07518 12.95186 10.23349 357.095 11.28222 354.4152 355.6166 6.346196 0.09277238 359.9156 1.419799 0.1509175 351.9456 354.9348 0.5787829 359.9579 359.9222 0.1392097 4.366971 4.116958 2.809007 0.2393119 4.460765 359.1193 4.076151 354.2466 359.0691 0.03435464 0.07909008 0.131245 
0.388331 98.28233 1.22815 1.693049 357.6324 359.6095 356.9516 6.462823 0.8084435 358.4988 2.968421 0.4733715 358.508 2.920704 0.4145543 358.8117 2.173814 0.2931176 352.7181 16.27902 6.252668 344.9376 355.4443 14.09093 10.6143 341.4534 351.2861 4.109686 328.463 11.16667 347.257 17.55582 346.4944 9.535284 20.23884 10.16742 334.3733 344.3913 12.74522 29.9155 345.5259 347.4748 16.10023 12.95745 10.24185 357.0645 11.29399 354.3684 355.6258 6.321497 0.09451193 359.9179 1.439235 0.1496391 351.933 354.9308 0.576043 359.9557 359.9161 0.1413067 4.373009 4.100495 2.819187 0.2325345 4.472305 359.1245 4.045162 354.2613 359.0614 0.0280686 0.07398386 0.1426707 
0.4103558 98.28242 1.248302 1.636363 357.6544 359.6109 356.9523 6.462715 0.8249732 358.5002 2.968972 0.4806155 358.5094 2.922089 0.4208032 358.8136 2.175566 0.2974472 352.699 16.28304 6.27494 344.8944 355.4609 14.13841 10.61637 341.4613 351.2985 4.091713 328.5096 11.12999 347.27 17.56248 346.4937 9.567316 20.21703 10.17489 334.3386 344.4145 12.75265 29.95827 345.5284 347.5049 16.10825 12.9608 10.23313 357.0732 11.29805 354.3908 355.6378 6.274856 0.09518994 359.9178 1.45438 0.1416215 351.9165 354.94 0.5659627 359.9579 359.9127 0.1419971 4.38618 4.061619 2.823928 0.2287393 4.476222 359.1228 4.039875 354.2844 359.0633 0.03137176 0.06989944 0.1526128 
